<svg width="1200" height="630" viewBox="0 0 1200 630" fill="none" xmlns="http://www.w3.org/2000/svg">
  <rect width="1200" height="630" rx="36" fill="#08152D"/>
  <circle cx="1030" cy="132" r="180" fill="#1D6FF2" fill-opacity="0.22"/>
  <circle cx="213" cy="517" r="220" fill="#16B8A3" fill-opacity="0.18"/>
  <rect x="64" y="64" width="1072" height="502" rx="28" fill="url(#paint0_linear)" fill-opacity="0.92" stroke="white" stroke-opacity="0.12"/>
  <rect x="100" y="105" width="120" height="120" rx="28" fill="url(#paint1_linear)"/>
  <path d="M138 132V198H152V146H190V132H138Z" fill="white"/>
  <path d="M161 162H189C197.284 162 204 168.716 204 177C204 185.284 197.284 192 189 192H161V178H186C188.761 178 191 175.761 191 173C191 170.239 188.761 168 186 168H161V162Z" fill="white" fill-opacity="0.9"/>
  <text x="268" y="162" fill="#93C5FD" font-family="'Space Grotesk', 'Noto Sans SC', sans-serif" font-size="34" font-weight="700" letter-spacing="0.2em">LARKTUN</text>
  <text x="96" y="318" fill="white" font-family="'Space Grotesk', 'Noto Sans SC', sans-serif" font-size="88" font-weight="700">Larktun Docs</text>
  <text x="96" y="390" fill="#D6E4FF" font-family="'Noto Sans SC', sans-serif" font-size="34" font-weight="500">Documentation, blog, showcase and bilingual help center for larktun.com</text>
  <rect x="96" y="444" width="198" height="54" rx="27" fill="white" fill-opacity="0.12"/>
  <rect x="312" y="444" width="164" height="54" rx="27" fill="white" fill-opacity="0.12"/>
  <rect x="494" y="444" width="190" height="54" rx="27" fill="white" fill-opacity="0.12"/>
  <text x="132" y="478" fill="white" font-family="'Noto Sans SC', sans-serif" font-size="24" font-weight="700">Docusaurus 3.10</text>
  <text x="349" y="478" fill="white" font-family="'Noto Sans SC', sans-serif" font-size="24" font-weight="700">Bilingual</text>
  <text x="529" y="478" fill="white" font-family="'Noto Sans SC', sans-serif" font-size="24" font-weight="700">Docs + Blog + Cases</text>
  <defs>
    <linearGradient id="paint0_linear" x1="90" y1="86" x2="1062" y2="534" gradientUnits="userSpaceOnUse">
      <stop stop-color="#0E203D"/>
      <stop offset="1" stop-color="#0B1529"/>
    </linearGradient>
    <linearGradient id="paint1_linear" x1="112" y1="111" x2="210" y2="217" gradientUnits="userSpaceOnUse">
      <stop stop-color="#1D6FF2"/>
      <stop offset="1" stop-color="#16B8A3"/>
    </linearGradient>
  </defs>
</svg>
